Coordinates
version=1
nRows=7
nColumns=42
inDegrees=yes

Units are S.I. units (second, meters, Newtons, ...)
If the header above contains a line with 'inDegrees', this indicates whether rotational values are in degrees (yes) or radians (no).

endheader
time	pelvis_tilt	pelvis_list	pelvis_rotation	pelvis_tx	pelvis_ty	pelvis_tz	hip_flexion_r	hip_adduction_r	hip_rotation_r	knee_angle_r	knee_adduction_r	knee_angle_r_beta	ankle_angle_r	subtalar_angle_r	mtp_angle_r	hip_flexion_l	hip_adduction_l	hip_rotation_l	knee_angle_l	knee_adduction_l	knee_angle_l_beta	ankle_angle_l	subtalar_angle_l	mtp_angle_l	lumbar_extension	lumbar_bending	lumbar_rotation	arm_flex_r	arm_add_r	arm_rot_r	elbow_flex_r	pro_sup_r	wrist_flex_r	wrist_dev_r	arm_flex_l	arm_add_l	arm_rot_l	elbow_flex_l	pro_sup_l	wrist_flex_l	wrist_dev_l
      0.88000000	     13.58271986	     -1.29544275	      6.00365313	     -1.48367841	      0.89745776	      0.15060893	     -8.13451848	      2.13838907	    -26.64273509	     17.47142185	      2.31375602	      0.30493384	     19.13874468	     35.65835918	     -7.66739682	     -5.41976731	     -3.81934532	    -15.05010362	     52.79107527	    -14.11322015	      0.92137808	     21.05820252	     19.55979984	     -7.66739682	    -36.98845155	      6.00387526	     -0.06806237	      1.36017221	    -15.92634723	      6.71943933	     48.67554958	     90.00000001	      0.00000000	      0.00000000	     15.08518112	    -14.12937128	      9.36030969	     45.18355870	     90.00000001	      0.00000000	      0.00000000
      0.89000000	     13.63342448	     -1.09970169	      5.89943940	     -1.47151827	      0.89818212	      0.15126558	     -9.45356134	      2.14917789	    -25.87015474	     16.70344381	      2.62935147	      0.29153009	     19.62656834	     35.40673970	     -7.66260704	     -3.65958590	     -3.48681706	    -15.04806522	     52.60601733	    -13.90631126	      0.91814821	     21.89575044	     18.46990544	     -7.66260704	    -37.18922143	      5.68607930	      0.18482951	      1.74540217	    -16.34905557	      6.96830492	     49.17435040	     90.00000001	      0.00000000	      0.00000000	     14.45920900	    -14.08359935	      9.18829762	     44.97195785	     90.00000001	      0.00000000	      0.00000000
      0.90000000	     13.69709558	     -0.91789874	      5.75592155	     -1.45930423	      0.89871374	      0.15186440	    -10.82031435	      2.16487335	    -24.86872370	     15.84826593	      3.00840873	      0.27660442	     19.97343770	     34.85481733	     -7.65589733	     -1.99535370	     -3.12626152	    -15.11844852	     52.09896757	    -13.70975119	      0.90929852	     22.48411644	     17.50013024	     -7.65589733	    -37.39317055	      5.37505613	      0.45409555	      2.14551513	    -16.80246606	      7.25954934	     49.68001333	     90.00000001	      0.00000000	      0.00000000	     13.77421123	    -14.02931701	      8.95391546	     44.83099818	     90.00000001	      0.00000000	      0.00000000
      0.91000000	     13.80201357	     -0.79310738	      5.52397249	     -1.44696166	      0.89902476	      0.15256170	    -12.24999256	      2.23572400	    -23.64725836	     14.93327688	      3.40144961	      0.26063485	     20.31166658	     34.12802468	     -7.64750542	     -0.47070462	     -2.85392754	    -15.42132221	     51.28599008	    -13.52973441	      0.89510939	     23.03643106	     16.77179991	     -7.64750542	    -37.61477968	      5.07729295	      0.83602881	      2.53349351	    -17.26702795	      7.49497292	     50.15055215	     90.00000001	      0.00000000	      0.00000000	     13.05329315	    -13.95988820	      8.70574875	     44.72568074	     90.00000001	      0.00000000	      0.00000000
      0.92000000	     13.93375289	     -0.69605416	      5.21077148	     -1.43452765	      0.89912476	      0.15335934	    -13.69802194	      2.34727840	    -22.40921421	     13.99729004	      3.66182553	      0.24429880	     20.67757192	     33.50796323	     -7.64120226	      0.91601784	     -2.63395517	    -15.85328161	     50.16299501	    -13.30039694	      0.87550943	     23.48261245	     16.17334124	     -7.64120226	    -37.84904271	      4.76231228	      1.32287632	      2.89818890	    -17.73889894	      7.64414417	     50.61406661	     90.00000001	      0.00000000	      0.00000000	     12.32047144	    -13.87816249	      8.46692267	     44.65720280	     90.00000001	      0.00000000	      0.00000000
      0.93000000	     13.87294638	     -0.67001189	      4.95893465	     -1.42229312	      0.89866048	      0.15413493	    -14.82478843	      2.52556142	    -21.54011198	     13.26970415	      3.73227565	      0.23160003	     21.27441588	     33.21710548	     -7.63859575	      2.55521403	     -2.46271812	    -16.21492309	     48.97116239	    -13.09399060	      0.85470802	     24.00421197	     15.56609424	     -7.63859575	    -37.87534846	      4.52580467	      1.81339021	      3.28845512	    -18.14713163	      7.63152889	     50.92103509	     90.00000001	      0.00000000	      0.00000000	     11.60803311	    -13.80886719	      8.34709474	     44.55659641	     90.00000001	      0.00000000	      0.00000000
      0.94000000	     14.20257863	     -0.64243868	      4.50864869	     -1.40949618	      0.89863501	      0.15497635	    -16.74175991	      2.66893426	    -19.23066839	     11.81177900	      4.31135795	      0.20615443	     21.20958736	     31.35516300	     -7.62763451	      3.46784548	     -2.38808756	    -17.03417929	     47.17803221	    -12.85418582	      0.82341200	     24.18096146	     15.51400092	     -7.62763451	    -38.26106244	      4.22566426	      2.39167575	      3.67968792	    -18.68426003	      7.93956232	     51.34992305	     90.00000001	      0.00000000	      0.00000000	     10.77042425	    -13.65983696	      7.75468653	     44.55159109	     90.00000001	      0.00000000	      0.00000000
